<?xml version="1.0" encoding="utf-8"?>
<!-- Generator: Adobe Illustrator 19.0.0, SVG Export Plug-In . SVG Version: 6.00 Build 0)  -->
<svg version="1.1" id="Layer_1" xmlns="http://www.w3.org/2000/svg" xmlns:xlink="http://www.w3.org/1999/xlink" x="0px" y="0px"
	 viewBox="-162 165.661 634.408 231.339" style="enable-background:new -162 165.661 634.408 231.339;" xml:space="preserve">
<style type="text/css">
	.st0{fill:#FFFFFF;}
</style>
<g>
	<path class="st0" d="M109.51,346.751c-13.87,0-25.13,11.25-25.13,25.12c0,13.88,11.26,25.13,25.13,25.13
		c13.88,0,25.13-11.25,25.13-25.13C134.64,358.001,123.39,346.751,109.51,346.751z M109.51,388.941c-9.43,0-17.07-7.64-17.07-17.07
		c0-9.42,7.64-17.07,17.07-17.07s17.07,7.65,17.07,17.07C126.58,381.301,118.94,388.941,109.51,388.941z M39.7,382.571v-27.53h13.75
		v-6.44H39.7v-13.4h-8.14v13.4h-10.1v6.44h10.1v28.76c0,9.81,7.55,15.23,22.32,10.99l0.02-7.17
		C46.64,389.561,39.91,389.441,39.7,382.571z M208.36,360.511c0.26-2.05,1.63-5.67,8.09-5.67c9.01,0,11.34,5.46,11.34,5.46
		l6.48-4.85c-4.34-5.54-10.8-8.03-16.96-8.1c-11.45-0.13-17.09,6.56-17.16,13.31c-0.16,17.59,26.52,9.74,27.02,20.47
		c0.46,9.57-17.74,9.61-22.66,1.43l-6.08,4.85c0,0,4.08,8.86,18.18,8.86c11.98,0,19.35-7.09,19.21-14.56
		C235.5,364.911,207.15,370.091,208.36,360.511z M-150.11,360.511c0.26-2.05,1.63-5.67,8.1-5.67c9.01,0,11.33,5.46,11.33,5.46
		l6.49-4.85c-4.34-5.54-10.81-8.03-16.97-8.1c-11.45-0.13-17.09,6.56-17.15,13.31c-0.17,17.59,26.51,9.74,27.02,20.47
		c0.45,9.57-17.74,9.61-22.67,1.43l-6.08,4.85c0,0,4.08,8.86,18.18,8.86c11.99,0,19.36-7.09,19.21-14.56
		C-122.97,364.911-151.31,370.091-150.11,360.511z M-90.66,346.751c-13.88,0-25.13,11.25-25.13,25.12
		c0,13.88,11.25,25.13,25.13,25.13c13.87,0,25.12-11.25,25.12-25.13C-65.54,358.001-76.79,346.751-90.66,346.751z M-90.66,388.941
		c-9.43,0-17.07-7.64-17.07-17.07c0-9.42,7.64-17.07,17.07-17.07c9.42,0,17.07,7.65,17.07,17.07
		C-73.59,381.301-81.24,388.941-90.66,388.941z M68.13,324.701c-3.2,0-5.8,2.59-5.8,5.8c0,3.2,2.6,5.8,5.8,5.8
		c3.21,0,5.81-2.6,5.81-5.8C73.94,327.291,71.34,324.701,68.13,324.701z M5.34,348.521v25.26c0,7.92-6.49,14.42-14.42,14.42h-0.81
		c-5.77,0-10.49-4.72-10.49-10.49v-29.19h-8.14v30.28c0,9.37,7.66,17.04,17.04,17.04h2.25c6.15,0,11.58-3.31,14.57-8.24v7.19h8.14
		v-46.27H5.34z M171.84,347.461h-2.25c-6.16,0-11.58,3.31-14.58,8.24v-7.18h-8.14v46.27h8.14v-25.26c0-7.93,6.49-14.42,14.42-14.42
		h0.82c5.76,0,10.48,4.72,10.48,10.48v29.2h8.15v-30.28C188.88,355.131,181.21,347.461,171.84,347.461z M64.05,348.521v46.27h8.15
		v-46.27H64.05z M-52.29,320.061v74.73h8.15v-74.73H-52.29z"/>
	<path class="st0" d="M168.56,200.181c-21.73,0-39.36,17.63-39.36,39.37c0,21.74,17.63,39.36,39.36,39.36
		c21.74,0,39.37-17.62,39.37-39.36C207.93,217.811,190.3,200.181,168.56,200.181z M168.56,200.181c-21.73,0-39.36,17.63-39.36,39.37
		c0,21.74,17.63,39.36,39.36,39.36c21.74,0,39.37-17.62,39.37-39.36C207.93,217.811,190.3,200.181,168.56,200.181z M232.95,167.381
		h-25.02c-4.45,0-8.07,3.54-8.19,7.96c-4.02-1.96-8.25-3.55-12.63-4.72c-5.94-1.6-12.16-2.45-18.55-2.45
		c-19.7,0-37.55,7.99-50.47,20.91c-12.91,12.91-20.9,30.76-20.9,50.47c0,19.71,7.99,37.55,20.9,50.47
		c12.92,12.92,30.77,20.91,50.47,20.91c6.47,0,12.81-0.9,18.9-2.57c4.43-1.22,8.69-2.85,12.74-4.86c1.12,3.19,4.15,5.48,7.73,5.48
		h25.02c4.52,0,8.19-3.67,8.19-8.19v-125.22C241.14,171.051,237.47,167.381,232.95,167.381z M232.95,300.791h-25.02v-2.86
		c0-4.49-2.35-6.88-7.08-4.06c-9.45,5.63-20.49,8.86-32.29,8.86c-34.89,0-63.18-28.29-63.18-63.18c0-34.9,28.29-63.19,63.18-63.19
		c11.56,0,22.39,3.11,31.7,8.52c3.99,2.31,7.67,3.45,7.67-3.02v-6.29h25.02V300.791z M168.56,200.181
		c-21.73,0-39.36,17.63-39.36,39.37c0,21.74,17.63,39.36,39.36,39.36c21.74,0,39.37-17.62,39.37-39.36
		C207.93,217.811,190.3,200.181,168.56,200.181z M168.56,200.181c-21.73,0-39.36,17.63-39.36,39.37c0,21.74,17.63,39.36,39.36,39.36
		c21.74,0,39.37-17.62,39.37-39.36C207.93,217.811,190.3,200.181,168.56,200.181z M168.56,200.181c-21.73,0-39.36,17.63-39.36,39.37
		c0,21.74,17.63,39.36,39.36,39.36c21.74,0,39.37-17.62,39.37-39.36C207.93,217.811,190.3,200.181,168.56,200.181z M327.26,166.491
		c-0.37,0-0.74,0.03-1.09,0.08c-19.01,1.38-36.06,10.04-48.37,23.17c-12.38,13.21-19.98,30.93-19.98,50.31v60.49
		c0,4.53,3.67,8.2,8.19,8.2h26.87c4.53,0,8.2-3.67,8.2-8.2v-60.49c0-7.75,2.94-14.86,7.76-20.24c4.89-5.46,11.7-9.18,19.32-10.03
		c4.19-0.46,7.29-4.01,7.28-8.12h0.02v-26.97C335.46,170.161,331.79,166.491,327.26,166.491z M327.26,201.661
		c-19.22,2.14-34.38,18.64-34.38,38.39v60.49h-26.87v-60.49c0-34.59,27.19-63.15,61.25-65.36V201.661z M470.41,281.461l-17.07-19.77
		c-0.13-0.16-0.26-0.32-0.4-0.48c-3.04-3.34-8.22-3.58-11.56-0.54c-2.72,2.46-5.87,4.43-9.32,5.77c-3.29,1.27-6.92,1.96-10.77,1.96
		c-8.26,0-15.74-3.35-21.15-8.76c-5.41-5.41-8.76-12.88-8.76-21.14s3.35-15.74,8.76-21.15c5.41-5.41,12.89-8.76,21.15-8.76
		c3.73,0,7.25,0.65,10.44,1.84c3.22,1.2,6.19,2.95,8.8,5.14c0.19,0.19,0.4,0.36,0.61,0.54c3.56,2.79,8.7,2.17,11.49-1.38l16.4-20.9
		l-0.02-0.01c2.73-3.46,2.21-8.48-1.19-11.32c-6.43-5.34-13.79-9.6-21.82-12.5c-7.77-2.81-16.1-4.34-24.71-4.34
		c-20.11,0-38.32,8.15-51.51,21.33c-13.18,13.18-21.33,31.39-21.33,51.51c0,20.11,8.15,38.32,21.33,51.5
		c13.19,13.18,31.4,21.33,51.51,21.33c8.92,0,17.5-1.62,25.44-4.59c0.15-0.04,0.29-0.1,0.44-0.15c8.34-3.17,15.95-7.84,22.51-13.67
		l-0.01-0.01C473,289.941,473.34,284.841,470.41,281.461z M421.29,303.141c-35.71,0-64.65-28.94-64.65-64.64
		c0-35.71,28.94-64.65,64.65-64.65c15.71,0,30.11,5.61,41.31,14.93l-16.4,20.89c-6.68-5.78-15.39-9.27-24.91-9.27
		c-21.04,0-38.1,17.05-38.1,38.1c0,21.04,17.06,38.1,38.1,38.1c9.85,0,18.83-3.75,25.6-9.88l17.35,20.09
		C452.82,296.971,437.78,303.141,421.29,303.141z M168.56,200.181c-21.73,0-39.36,17.63-39.36,39.37
		c0,21.74,17.63,39.36,39.36,39.36c21.74,0,39.37-17.62,39.37-39.36C207.93,217.811,190.3,200.181,168.56,200.181z M168.56,200.181
		c-21.73,0-39.36,17.63-39.36,39.37c0,21.74,17.63,39.36,39.36,39.36c21.74,0,39.37-17.62,39.37-39.36
		C207.93,217.811,190.3,200.181,168.56,200.181z"/>
	<path class="st0" d="M62.13,187.991c-6.68-6.68-14.63-12.08-23.44-15.83c-8.81-3.74-18.48-5.81-28.62-5.81
		c-8.87,0-17.4,1.57-25.34,4.48c-8.11,2.98-15.6,7.4-22.18,13l-0.49,0.41c-0.61,0.52-0.83,0.95-0.89,1.3
		c-0.78-0.69-1.63-1.43-1.92-1.68c-6.55-5.55-14.07-9.99-22.26-13c-3.96-1.46-8.07-2.59-12.3-3.35c-4.22-0.76-8.56-1.16-12.99-1.16
		c-20.28,0-38.71,8.29-52.06,21.64c-13.35,13.36-21.64,31.79-21.64,52.06v58.58c0,4.53,3.66,8.19,8.19,8.19h26.87
		c4.53,0,8.2-3.66,8.2-8.19v-58.58c0-8.33,3.44-15.94,8.97-21.47c5.52-5.53,13.13-8.97,21.47-8.97c8.34,0,15.94,3.44,21.47,8.97
		c5.53,5.53,8.97,13.14,8.97,21.47v58.58c0,4.53,3.67,8.19,8.2,8.19h26.87c4.52,0,8.19-3.66,8.19-8.19v-76.36
		c2.62-3.59,6.01-6.61,9.94-8.82c4.36-2.44,9.39-3.84,14.73-3.84c8.33,0,15.94,3.44,21.47,8.97c5.53,5.53,8.97,13.14,8.97,21.47
		v58.58c0,4.53,3.67,8.19,8.19,8.19h26.88c4.52,0,8.19-3.66,8.19-8.19v-58.58C83.77,219.781,75.48,201.351,62.13,187.991z
		 M75.58,298.631H48.7v-58.58c0-21.19-17.44-38.63-38.63-38.63c-13.81,0-26.02,7.4-32.86,18.42v78.79h-26.87v-58.58
		c0-21.19-17.44-38.63-38.64-38.63s-38.64,17.44-38.64,38.63v58.58h-26.87v-58.58c0-18.02,7.37-34.39,19.24-46.27
		c11.88-11.87,28.26-19.24,46.27-19.24c16.07,0,30.84,5.87,42.27,15.56c7.05,5.99,5.95,6.66,13.86-0.07
		c5.72-4.86,12.26-8.74,19.39-11.39c7.12-2.66,14.82-4.1,22.85-4.1c36.03,0,65.51,29.48,65.51,65.51V298.631z"/>
</g>
</svg>
